:FULLY-SPECIFIED
:FORCE-ALL-JOINTS-BE-3DOF
:DEGREES
1427
root -1.9613 13.6937 12.7028 366.134 25.7825 366.214
lfemur 27.9242 0.37518 -11.0609
ltibia 14.8525 0 0
lfoot -15.585 35.1336 0
ltoes -23.3184 0 0
rfemur -65.765 -22.1308 12.7012
rtibia 74.2474 0 0
rfoot -9.30936 13.1005 0
rtoes 5.51843 0 0
lowerback 9.34709 2.00621 -10.8755
upperback -3.55857 1.14358 -0.993183
thorax -9.36677 1.16992 4.85263
lowerneck 0.87187 -12.6409 -10.995
upperneck 6.02694 -17.4683 10.7391
head 3.44194 -8.67663 4.20363
lclavicle 1.162e-14 8.94941e-15 0
lhumerus -77.285 -17.5051 105.271
lradius 101.172 0 0
lwrist 59.6168 0 0
lhand -7.43202 42.0575 0
lfingers 7.12502 0 0
lthumb 18.4592 -288.73 0
rclavicle 1.162e-14 8.94941e-15 0
rhumerus 64.6223 -16.3118 -28.2225
rradius 82.8858 0 0
rwrist 29.0987 0 0
rhand -46.4749 -31.7659 0
rfingers 7.12502 0 0
rthumb -19.2102 -60.9985 0
1428
root -1.9718 13.6946 12.699 366.162 25.8723 366.243
lfemur 27.7394 0.341056 -11.0169
ltibia 15.0509 0 0
lfoot -15.5874 35.1043 0
ltoes -23.2527 0 0
rfemur -65.7596 -22.111 12.6786
rtibia 74.2326 0 0
rfoot -9.28842 12.9673 0
rtoes 5.49065 0 0
lowerback 9.39494 2.00037 -10.8595
upperback -3.55331 1.13499 -0.988811
thorax -9.38674 1.16555 4.84891
lowerneck 0.821305 -12.584 -10.9623
upperneck 6.02985 -17.3849 10.6692
head 3.44027 -8.63567 4.18211
lclavicle 1.16708e-14 9.28022e-15 0
lhumerus -77.1089 -17.5531 105.244
lradius 101.15 0 0
lwrist 59.5707 0 0
lhand -7.53916 41.9996 0
lfingers 7.12502 0 0
lthumb 18.3559 -288.782 0
rclavicle 1.16708e-14 9.28022e-15 0
rhumerus 64.5125 -16.1726 -28.1844
rradius 82.8603 0 0
rwrist 28.9463 0 0
rhand -46.3129 -31.7321 0
rfingers 7.12502 0 0
rthumb -19.0539 -60.97 0
1429
root -1.98388 13.6958 12.6955 366.201 25.9752 366.276
lfemur 27.5358 0.302791 -10.9647
ltibia 15.2527 0 0
lfoot -15.5846 35.0667 0
ltoes -23.2077 0 0
rfemur -65.7599 -22.084 12.6543
rtibia 74.2204 0 0
rfoot -9.26869 12.8029 0
rtoes 5.46055 0 0
lowerback 9.45422 1.99527 -10.8353
upperback -3.5446 1.12786 -0.984288
thorax -9.40937 1.16135 4.84019
lowerneck 0.759581 -12.515 -10.923
upperneck 6.0307 -17.2838 10.5873
head 3.4379 -8.58595 4.15698
lclavicle 1.16595e-14 9.55519e-15 0
lhumerus -76.888 -17.6099 105.206
lradius 101.125 0 0
lwrist 59.5073 0 0
lhand -7.66808 41.9441 0
lfingers 7.12502 0 0
lthumb 18.2316 -288.831 0
rclavicle 1.16595e-14 9.55519e-15 0
rhumerus 64.3844 -16.0043 -28.1436
rradius 82.8265 0 0
rwrist 28.7641 0 0
rhand -46.1159 -31.6901 0
rfingers 7.12502 0 0
rthumb -18.8638 -60.9345 0
1430
root -1.99763 13.6972 12.6921 366.251 26.0916 366.315
lfemur 27.313 0.260271 -10.9038
ltibia 15.457 0 0
lfoot -15.5762 35.0203 0
ltoes -23.1851 0 0
rfemur -65.7667 -22.0496 12.6286
rtibia 74.2113 0 0
rfoot -9.25053 12.6061 0
rtoes 5.42853 0 0
lowerback 9.52548 1.99095 -10.8023
upperback -3.53224 1.12231 -0.979613
thorax -9.43477 1.15736 4.82619
lowerneck 0.686074 -12.4333 -10.8767
upperneck 6.02935 -17.164 10.493
head 3.43478 -8.52702 4.12805
lclavicle 1.15806e-14 9.77133e-15 0
lhumerus -76.6201 -17.6759 105.154
lradius 101.096 0 0
lwrist 59.4259 0 0
lhand -7.8198 41.8912 0
lfingers 7.12502 0 0
lthumb 18.0852 -288.877 0
rclavicle 1.15806e-14 9.77133e-15 0
rhumerus 64.2371 -15.8053 -28.0999
rradius 82.7841 0 0
rwrist 28.5506 0 0
rhand -45.8822 -31.6394 0
rfingers 7.12502 0 0
rthumb -18.6383 -60.8913 0
1431
root -2.01313 13.6987 12.6891 366.313 26.222 366.359
lfemur 27.0706 0.213385 -10.8339
ltibia 15.6628 0 0
lfoot -15.5616 34.9647 0
ltoes -23.1864 0 0
rfemur -65.7808 -22.0075 12.6016
rtibia 74.2059 0 0
rfoot -9.2343 12.3752 0
rtoes 5.39498 0 0
lowerback 9.60927 1.98748 -10.7601
upperback -3.51606 1.11845 -0.974786
thorax -9.46306 1.15359 4.8066
lowerneck 0.600163 -12.3382 -10.8232
upperneck 6.02568 -17.0246 10.3855
head 3.43087 -8.4584 4.09514
lclavicle 1.14284e-14 9.92567e-15 0
lhumerus -76.3028 -17.7516 105.09
lradius 101.063 0 0
lwrist 59.3255 0 0
lhand -7.99535 41.841 0
lfingers 7.12502 0 0
lthumb 17.9159 -288.918 0
rclavicle 1.14284e-14 9.92567e-15 0
rhumerus 64.0697 -15.5743 -28.0534
rradius 82.7325 0 0
rwrist 28.304 0 0
rhand -45.6099 -31.5796 0
rfingers 7.12502 0 0
rthumb -18.3756 -60.8401 0
1432
root -2.03046 13.7005 12.6865 366.388 26.3669 366.409
lfemur 26.8082 0.162021 -10.7544
ltibia 15.8693 0 0
lfoot -15.5402 34.8995 0
ltoes -23.2131 0 0
rfemur -65.8028 -21.9576 12.5735
rtibia 74.2048 0 0
rfoot -9.22036 12.109 0
rtoes 5.36029 0 0
lowerback 9.70613 1.98491 -10.7083
upperback -3.49586 1.11639 -0.969807
thorax -9.49433 1.15006 4.78113
lowerneck 0.501226 -12.2292 -10.7618
upperneck 6.01955 -16.8647 10.2643
head 3.42613 -8.37965 4.05804
lclavicle 1.11973e-14 1.00152e-14 0
lhumerus -75.9337 -17.8376 105.011
lradius 101.027 0 0
lwrist 59.2052 0 0
lhand -8.19575 41.7938 0
lfingers 7.12502 0 0
lthumb 17.7227 -288.956 0
rclavicle 1.11973e-14 1.00152e-14 0
rhumerus 63.8813 -15.3096 -28.0041
rradius 82.6714 0 0
rwrist 28.0229 0 0
rhand -45.2973 -31.5101 0
rfingers 7.12502 0 0
rthumb -18.0739 -60.7805 0
1433
root -2.0497 13.7024 12.6843 366.476 26.5267 366.466
lfemur 26.5255 0.106067 -10.665
ltibia 16.0756 0 0
lfoot -15.5115 34.8241 0
ltoes -23.2667 0 0
rfemur -65.8336 -21.8995 12.5445
rtibia 74.2086 0 0
rfoot -9.20906 11.8058 0
rtoes 5.32487 0 0
lowerback 9.81661 1.98328 -10.6463
upperback -3.47147 1.11622 -0.964676
thorax -9.52871 1.1468 4.74948
lowerneck 0.388638 -12.1055 -10.6924
upperneck 6.01083 -16.6834 10.1287
head 3.42052 -8.29029 4.01656
lclavicle 1.08817e-14 1.0037e-14 0
lhumerus -75.5106 -17.9343 104.918
lradius 100.986 0 0
lwrist 59.0641 0 0
lhand -8.42204 41.7496 0
lfingers 7.12502 0 0
lthumb 17.5044 -288.989 0
rclavicle 1.08817e-14 1.0037e-14 0
rhumerus 63.6712 -15.01 -27.9519
rradius 82.6004 0 0
rwrist 27.7054 0 0
rhand -44.9426 -31.4304 0
rfingers 7.12502 0 0
rthumb -17.7316 -60.712 0
1434
root -2.07094 13.7045 12.6826 366.579 26.7019 366.528
lfemur 26.222 0.0454108 -10.5651
ltibia 16.2808 0 0
lfoot -15.4751 34.7383 0
ltoes -23.3488 0 0
rfemur -65.8738 -21.833 12.5147
rtibia 74.2177 0 0
rfoot -9.20078 11.4644 0
rtoes 5.28911 0 0
lowerback 9.94127 1.98267 -10.5736
upperback -3.4427 1.11807 -0.959394
thorax -9.5663 1.14382 4.71135
lowerneck 0.26178 -11.9665 -10.6145
upperneck 5.99939 -16.4797 9.97822
head 3.414 -8.18987 3.97051
lclavicle 1.0476e-14 9.98804e-15 0
lhumerus -75.0311 -18.0424 104.811
lradius 100.941 0 0
lwrist 58.9012 0 0
lhand -8.67524 41.7088 0
lfingers 7.12502 0 0
lthumb 17.2602 -289.017 0
rclavicle 1.0476e-14 9.98804e-15 0
rhumerus 63.4384 -14.6738 -27.8969
rradius 82.519 0 0
rwrist 27.3501 0 0
rhand -44.5439 -31.3401 0
rfingers 7.12502 0 0
rthumb -17.3469 -60.6342 0
1435
root -2.09425 13.7067 12.6814 366.696 26.893 366.598
lfemur 25.8974 -0.0200596 -10.4543
ltibia 16.484 0 0
lfoot -15.4303 34.6415 0
ltoes -23.4609 0 0
rfemur -65.9243 -21.7578 12.4843
rtibia 74.2329 0 0
rfoot -9.19586 11.0831 0
rtoes 5.25339 0 0
lowerback 10.0806 1.98311 -10.4899
upperback -3.40936 1.12205 -0.95396
thorax -9.60722 1.14114 4.66644
lowerneck 0.120026 -11.8117 -10.5277
upperneck 5.9851 -16.2527 9.81213
head 3.40652 -8.07792 3.91971
lclavicle 9.97449e-15 9.86533e-15 0
lhumerus -74.4928 -18.1622 104.687
lradius 100.891 0 0
lwrist 58.7157 0 0
lhand -8.95638 41.6715 0
lfingers 7.12502 0 0
lthumb 16.989 -289.041 0
rclavicle 9.97449e-15 9.86533e-15 0
rhumerus 63.1821 -14.2996 -27.8391
rradius 82.4269 0 0
rwrist 26.9551 0 0
rhand -44.0995 -31.2387 0
rfingers 7.12502 0 0
rthumb -16.9181 -60.5466 0
1436
root -2.11972 13.7091 12.6808 366.829 27.1005 366.674
lfemur 25.5512 -0.0904563 -10.3322
ltibia 16.6844 0 0
lfoot -15.3767 34.5334 0
ltoes -23.6046 0 0
rfemur -65.9857 -21.6738 12.4534
rtibia 74.2547 0 0
rfoot -9.19466 10.6606 0
rtoes 5.21813 0 0
lowerback 10.2353 1.98466 -10.3946
upperback -3.37128 1.12825 -0.948374
thorax -9.65157 1.13879 4.61446
lowerneck -0.0372435 -11.6403 -10.4317
upperneck 5.96783 -16.0014 9.62987
head 3.39804 -7.95398 3.86395
lclavicle 9.37161e-15 9.6659e-15 0
lhumerus -73.8935 -18.2944 104.547
lradius 100.837 0 0
lwrist 58.5067 0 0
lhand -9.26649 41.6378 0
lfingers 7.12502 0 0
lthumb 16.6899 -289.06 0
rclavicle 9.37161e-15 9.6659e-15 0
rhumerus 62.9014 -13.886 -27.7784
rradius 82.3235 0 0
rwrist 26.519 0 0
rhand -43.6076 -31.1257 0
rfingers 7.12502 0 0
rthumb -16.4434 -60.4488 0
1437
root -2.14502 13.7109 12.6765 366.868 27.3285 366.654
lfemur 25.2295 -0.170079 -10.1934
ltibia 16.844 0 0
lfoot -15.3212 34.4243 0
ltoes -23.7744 0 0
rfemur -66.0642 -21.5934 12.4179
rtibia 74.2826 0 0
rfoot -9.1883 10.2148 0
rtoes 5.19568 0 0
lowerback 10.3966 1.98791 -10.2984
upperback -3.33036 1.13553 -0.944955
thorax -9.69675 1.13676 4.55933
lowerneck -0.203773 -11.4685 -10.3377
upperneck 5.94907 -15.7486 9.44797
head 3.38916 -7.82928 3.80897
lclavicle 8.71983e-15 9.38217e-15 0
lhumerus -73.3297 -18.4055 104.434
lradius 100.766 0 0
lwrist 58.3005 0 0
lhand -9.5913 41.61 0
lfingers 7.12502 0 0
lthumb 16.3766 -289.072 0
rclavicle 8.71983e-15 9.38217e-15 0
rhumerus 62.659 -13.4795 -27.6875
rradius 82.1959 0 0
rwrist 26.0919 0 0
rhand -43.1076 -31.0033 0
rfingers 7.12502 0 0
rthumb -15.9608 -60.3437 0
1438
root -2.16791 13.7114 12.6645 366.712 27.5796 366.443
lfemur 24.975 -0.262477 -10.0339
ltibia 16.9293 0 0
lfoot -15.2711 34.3245 0
ltoes -23.9629 0 0
rfemur -66.1643 -21.5284 12.374
rtibia 74.3155 0 0
rfoot -9.16832 9.76472 0
rtoes 5.19675 0 0
lowerback 10.5559 1.9933 -10.2117
upperback -3.28866 1.14271 -0.945802
thorax -9.74016 1.13501 4.50512
lowerneck -0.37274 -11.3119 -10.2567
upperneck 5.93036 -15.5165 9.28258
head 3.3805 -7.71481 3.76032
lclavicle 8.07511e-15 9.01166e-15 0
lhumerus -72.8929 -18.4644 104.386
lradius 100.668 0 0
lwrist 58.1228 0 0
lhand -9.91587 41.5897 0
lfingers 7.12502 0 0
lthumb 16.0636 -289.077 0
rclavicle 8.07511e-15 9.01166e-15 0
rhumerus 62.5131 -13.1249 -27.5419
rradius 82.0332 0 0
rwrist 25.7224 0 0
rhand -42.6384 -30.8744 0
rfingers 7.12502 0 0
rthumb -15.5079 -60.2346 0
